<?xml version="1.0" encoding="UTF-8"?>
<svg version="1.1" xmlns="http://www.w3.org/2000/svg" width="200" height="200">
<path d="M0 0 C0 1.98 0 3.96 0 6 C-0.76183594 6.27972656 -1.52367187 6.55945313 -2.30859375 6.84765625 C-13.84084459 11.22766758 -13.84084459 11.22766758 -22 20 C-22.66 20 -23.32 20 -24 20 C-24.26296875 20.56074219 -24.5259375 21.12148438 -24.796875 21.69921875 C-26.1122838 24.21472454 -27.65064682 26.46750243 -29.25 28.8125 C-43.08583186 50.51746124 -45.90576245 78.24848726 -40.5390625 103.13769531 C-36.16387266 120.86562798 -27.71174056 138.43429845 -11.9375 148.5625 C-1.62727399 154.03224431 7.58473546 154.3823972 19 154 C22.9380805 178.39628483 22.9380805 178.39628483 23 189 C20.16415054 191.83584946 12.77880802 190.92229724 9 191 C-6.65012571 189.95796902 -20.55048885 182.40803572 -31.2578125 171.0859375 C-49.49629102 149.24883542 -57.45759395 122.67580104 -57.375 94.5 C-57.37445618 93.79890106 -57.37391235 93.09780212 -57.37335205 92.37545776 C-57.26931694 63.09623136 -48.68519085 35.21447098 -28.125 13.6875 C-22.0116544 7.78914973 -9.01178127 -3.00392709 0 0 Z " fill="#616163" transform="translate(93,5)"/>
<path d="M0 0 C13.92154973 13.34148516 21.4043905 32.48867527 21.890625 51.62890625 C22.17464339 75.70755352 18.60798175 98.49157577 1.25 116.625 C-7.5591552 125.013957 -16.71761096 129.11974294 -28.9609375 128.89453125 C-37.35388854 128.37868542 -43.42451824 125.49914268 -50.3125 120.75 C-50.92996094 120.33105469 -51.54742187 119.91210938 -52.18359375 119.48046875 C-66.2391053 108.7359553 -73.74930267 88.24206384 -76.0625 71.375 C-77.89317807 47.35293168 -73.66919331 23.4042871 -58.5625 4 C-51.14183321 -4.09527287 -41.57783389 -10.20369878 -30.49609375 -11.17578125 C-18.36652903 -11.58805626 -9.24780508 -7.90266979 0 0 Z M-54.68359375 8.453125 C-66.73343344 25.44426585 -69.15553793 46.10108934 -65.99609375 66.234375 C-63.05682176 81.35063096 -55.91975087 95.58108004 -42.90234375 104.37890625 C-35.34318727 108.58376192 -27.60901109 109.86457794 -19.1875 107.6875 C-6.28659572 103.14867155 1.15892069 93.92825602 6.97094727 82.00488281 C15.20581093 64.14732611 15.31591629 42.18833793 8.6875 23.75 C4.28773512 12.62557815 -2.35690489 1.45138113 -13.3125 -4.25 C-30.07861758 -10.9510211 -43.55299731 -4.87260067 -54.68359375 8.453125 Z " fill="#F39A2B" transform="translate(129.3125,24.25)"/>
<path d="M0 0 C4.1515458 0.05443028 5.91592167 0.17959569 9.5625 2.3125 C11.89923373 6.553239 11.38962295 9.77128506 10.25 14.375 C9.92 15.035 9.59 15.695 9.25 16.375 C10.14363605 18.98431266 10.14363605 18.98431266 11.25 21.375 C11.27505615 20.77437744 11.3001123 20.17375488 11.32592773 19.55493164 C11.4415528 16.84888563 11.56442936 14.14321717 11.6875 11.4375 C11.72681641 10.49197266 11.76613281 9.54644531 11.80664062 8.57226562 C11.84853516 7.67314453 11.89042969 6.77402344 11.93359375 5.84765625 C11.97025146 5.01500244 12.00690918 4.18234863 12.04467773 3.32446289 C12.25 1.375 12.25 1.375 13.25 0.375 C18.03414799 -0.10736864 22.62688099 -0.55249658 26.875 1.875 C28.76524309 5.31180562 29.42111228 8.49893482 29.25 12.375 C28.25 15.8125 28.25 15.8125 26.25 18.375 C22.5625 19.25 22.5625 19.25 19.25 19.375 C19.25 22.015 19.25 24.655 19.25 27.375 C14.63 27.375 10.01 27.375 5.25 27.375 C4.26 25.395 3.27 23.415 2.25 21.375 C1.59 23.355 0.93 25.335 0.25 27.375 C-1.74954746 27.41754356 -3.75041636 27.41580783 -5.75 27.375 C-7.49545605 25.62954395 -6.8802316 23.21375783 -6.8828125 20.84375 C-6.88410156 19.72355469 -6.88539062 18.60335937 -6.88671875 17.44921875 C-6.88285156 16.26972656 -6.87898438 15.09023437 -6.875 13.875 C-6.87886719 12.69550781 -6.88273437 11.51601562 -6.88671875 10.30078125 C-6.88542969 9.18058594 -6.88414063 8.06039062 -6.8828125 6.90625 C-6.88168457 5.87048828 -6.88055664 4.83472656 -6.87939453 3.76757812 C-6.63460304 -0.75875511 -3.98362807 0.12631016 0 0 Z M1.25 8.375 C1.25 9.035 1.25 9.695 1.25 10.375 C2.24 10.045 3.23 9.715 4.25 9.375 C3.26 9.045 2.27 8.715 1.25 8.375 Z M19.25 8.375 C19.25 9.365 19.25 10.355 19.25 11.375 C20.24 11.045 21.23 10.715 22.25 10.375 C21.92 9.715 21.59 9.055 21.25 8.375 C20.59 8.375 19.93 8.375 19.25 8.375 Z " fill="#7B7B7B" transform="translate(108.75,66.625)"/>
<path d="M0 0 C8.23211989 7.8891149 16.41762284 19.06713008 17.6875 30.75 C15.875 33.3125 15.875 33.3125 13.6875 35.75 C12.99133353 37.06817088 12.31852562 38.39943386 11.6875 39.75 C11.47996094 38.75742187 11.27242188 37.76484375 11.05859375 36.7421875 C7.71511387 21.65634645 2.05307093 6.70538539 -11.36328125 -2.21875 C-19.05655838 -6.28894071 -26.76514548 -7.27365243 -35.1875 -5.1875 C-45.95945779 -1.70052886 -53.44245577 6.84460196 -58.5 16.625 C-67.44067737 35.48679456 -66.77715244 53.54865232 -64.3125 73.75 C-64.9725 73.75 -65.6325 73.75 -66.3125 73.75 C-66.8075 71.275 -66.8075 71.275 -67.3125 68.75 C-68.3025 68.42 -69.2925 68.09 -70.3125 67.75 C-70.3125 67.09 -70.3125 66.43 -70.3125 65.75 C-69.6525 65.75 -68.9925 65.75 -68.3125 65.75 C-68.32821045 64.96987549 -68.3439209 64.18975098 -68.36010742 63.38598633 C-68.42328907 59.77823428 -68.4617516 56.17059925 -68.5 52.5625 C-68.53770508 50.72268555 -68.53770508 50.72268555 -68.57617188 48.84570312 C-68.64297299 40.40649536 -67.58525345 32.87673773 -65.3125 24.75 C-66.3025 25.245 -66.3025 25.245 -67.3125 25.75 C-67.6425 26.74 -67.9725 27.73 -68.3125 28.75 C-69.7975 29.245 -69.7975 29.245 -71.3125 29.75 C-67.540154 13.51094863 -58.22209038 1.54022616 -44.3125 -7.25 C-28.87373638 -15.20164639 -12.64837004 -10.80860713 0 0 Z " fill="#F8D16E" transform="translate(129.3125,24.25)"/>
<path d="M0 0 C3.36838724 0.0612434 5.32927236 0.13755162 8.375 1.625 C10.54069988 6.05952832 10.41255359 10.48613317 9.6875 15.3125 C8 18 8 18 5.6875 19.3125 C2.9375 19.5625 2.9375 19.5625 0.6875 19.3125 C0.6875 21.9525 0.6875 24.5925 0.6875 27.3125 C-1.6225 27.3125 -3.9325 27.3125 -6.3125 27.3125 C-6.34136537 23.00001391 -6.35925255 18.68755238 -6.375 14.375 C-6.38337891 13.14330078 -6.39175781 11.91160156 -6.40039062 10.64257812 C-6.40361328 9.47275391 -6.40683594 8.30292969 -6.41015625 7.09765625 C-6.41539307 6.01363525 -6.42062988 4.92961426 -6.42602539 3.81274414 C-6.22211561 -0.67809467 -3.99636129 0.10057068 0 0 Z M0.6875 8.3125 C0.6875 9.3025 0.6875 10.2925 0.6875 11.3125 C1.3475 11.3125 2.0075 11.3125 2.6875 11.3125 C2.6875 10.3225 2.6875 9.3325 2.6875 8.3125 C2.0275 8.3125 1.3675 8.3125 0.6875 8.3125 Z " fill="#6F6F6F" transform="translate(91.3125,66.6875)"/>
<path d="M0 0 C0.66 0 1.32 0 2 0 C1.85915204 1.79206547 1.71216299 3.58364917 1.5625 5.375 C1.48128906 6.37273438 1.40007813 7.37046875 1.31640625 8.3984375 C1 11 1 11 0 13 C-0.15441209 15.10374996 -0.24992639 17.21195119 -0.31640625 19.3203125 C-0.35830078 20.57714844 -0.40019531 21.83398438 -0.44335938 23.12890625 C-0.48267578 24.44761719 -0.52199219 25.76632813 -0.5625 27.125 C-0.60569512 28.46485751 -0.64930973 29.80470156 -0.69335938 31.14453125 C-0.79970981 34.42957815 -0.90173808 37.71470281 -1 41 C-3.97 41.495 -3.97 41.495 -7 42 C-6.67 46.29 -6.34 50.58 -6 55 C-12.10535708 42.78928585 -9.79815385 23.24941748 -6.3046875 10.453125 C-5.5625 8.25 -5.5625 8.25 -4 5 C-3.01 4.67 -2.02 4.34 -1 4 C-0.26676204 1.98491642 -0.26676204 1.98491642 0 0 Z " fill="#FBB917" transform="translate(62,49)"/>
<path d="M0 0 C1.58206057 0.00667536 3.16410534 0.0186375 4.74609375 0.03515625 C5.55240234 0.03966797 6.35871094 0.04417969 7.18945312 0.04882812 C9.18753131 0.06065107 11.18557158 0.07858711 13.18359375 0.09765625 C13.18359375 2.73765625 13.18359375 5.37765625 13.18359375 8.09765625 C11.53359375 8.09765625 9.88359375 8.09765625 8.18359375 8.09765625 C8.18359375 14.36765625 8.18359375 20.63765625 8.18359375 27.09765625 C5.87359375 27.09765625 3.56359375 27.09765625 1.18359375 27.09765625 C1.18359375 20.82765625 1.18359375 14.55765625 1.18359375 8.09765625 C-0.79640625 8.09765625 -2.77640625 8.09765625 -4.81640625 8.09765625 C-4.85882348 5.7647085 -4.85733562 3.43063058 -4.81640625 1.09765625 C-3.81640625 0.09765625 -3.81640625 0.09765625 0 0 Z " fill="#686868" transform="translate(70.81640625,66.90234375)"/>
<path d="M0 0 C0.66 0.33 1.32 0.66 2 1 C1.42435345 4.88561424 -0.51253354 7.04613357 -3 10 C-3.33 10.66 -3.66 11.32 -4 12 C-0.30209954 10.76736651 -0.0645154 9.79947549 1.6875 6.4375 C2.12449219 5.61121094 2.56148437 4.78492188 3.01171875 3.93359375 C3.33785156 3.29550781 3.66398437 2.65742187 4 2 C4.66 2.33 5.32 2.66 6 3 C5.67386719 3.61746094 5.34773438 4.23492187 5.01171875 4.87109375 C-5.01294939 24.29943289 -4.57895356 42.86179132 -2 64 C-2.66 64 -3.32 64 -4 64 C-4.33 62.35 -4.66 60.7 -5 59 C-5.99 58.67 -6.98 58.34 -8 58 C-8 57.34 -8 56.68 -8 56 C-7.34 56 -6.68 56 -6 56 C-6.01571045 55.21987549 -6.0314209 54.43975098 -6.04760742 53.63598633 C-6.11078907 50.02823428 -6.1492516 46.42059925 -6.1875 42.8125 C-6.22520508 40.97268555 -6.22520508 40.97268555 -6.26367188 39.09570312 C-6.33047299 30.65649536 -5.27275345 23.12673773 -3 15 C-3.99 15.495 -3.99 15.495 -5 16 C-5.33 16.99 -5.66 17.98 -6 19 C-6.99 19.33 -7.98 19.66 -9 20 C-7.17689912 12.4837069 -4.24186738 6.45203129 0 0 Z " fill="#F9CE65" transform="translate(67,34)"/>
<path d="M0 0 C1.58206057 0.00667536 3.16410534 0.0186375 4.74609375 0.03515625 C5.55240234 0.03966797 6.35871094 0.04417969 7.18945312 0.04882812 C9.18753131 0.06065107 11.18557158 0.07858711 13.18359375 0.09765625 C13.18359375 2.73765625 13.18359375 5.37765625 13.18359375 8.09765625 C11.53359375 8.09765625 9.88359375 8.09765625 8.18359375 8.09765625 C8.18359375 14.36765625 8.18359375 20.63765625 8.18359375 27.09765625 C5.87359375 27.09765625 3.56359375 27.09765625 1.18359375 27.09765625 C1.18359375 20.82765625 1.18359375 14.55765625 1.18359375 8.09765625 C-0.79640625 8.09765625 -2.77640625 8.09765625 -4.81640625 8.09765625 C-4.85882348 5.7647085 -4.85733562 3.43063058 -4.81640625 1.09765625 C-3.81640625 0.09765625 -3.81640625 0.09765625 0 0 Z M-3.81640625 1.09765625 C-3.81640625 3.07765625 -3.81640625 5.05765625 -3.81640625 7.09765625 C-1.83640625 7.09765625 0.14359375 7.09765625 2.18359375 7.09765625 C2.18359375 13.03765625 2.18359375 18.97765625 2.18359375 25.09765625 C3.50359375 25.09765625 4.82359375 25.09765625 6.18359375 25.09765625 C6.18359375 19.15765625 6.18359375 13.21765625 6.18359375 7.09765625 C8.16359375 7.09765625 10.14359375 7.09765625 12.18359375 7.09765625 C12.18359375 5.11765625 12.18359375 3.13765625 12.18359375 1.09765625 C6.90359375 1.09765625 1.62359375 1.09765625 -3.81640625 1.09765625 Z " fill="#ABABAB" transform="translate(70.81640625,66.90234375)"/>
<path d="M0 0 C1.65322266 0.01740234 1.65322266 0.01740234 3.33984375 0.03515625 C4.99693359 0.04869141 4.99693359 0.04869141 6.6875 0.0625 C7.54214844 0.07410156 8.39679688 0.08570312 9.27734375 0.09765625 C9.27734375 0.42765625 9.27734375 0.75765625 9.27734375 1.09765625 C5.64734375 1.09765625 2.01734375 1.09765625 -1.72265625 1.09765625 C-1.72265625 9.01765625 -1.72265625 16.93765625 -1.72265625 25.09765625 C-0.40265625 25.09765625 0.91734375 25.09765625 2.27734375 25.09765625 C2.27734375 22.12765625 2.27734375 19.15765625 2.27734375 16.09765625 C3.26734375 16.09765625 4.25734375 16.09765625 5.27734375 16.09765625 C5.13691498 17.74395953 4.98985046 19.38969804 4.83984375 21.03515625 C4.75863281 21.95167969 4.67742187 22.86820313 4.59375 23.8125 C4.27734375 26.09765625 4.27734375 26.09765625 3.27734375 27.09765625 C0.27734375 27.22265625 0.27734375 27.22265625 -2.72265625 27.09765625 C-4.4681123 25.3522002 -3.85288785 22.93641408 -3.85546875 20.56640625 C-3.85675781 19.44621094 -3.85804687 18.32601562 -3.859375 17.171875 C-3.85550781 15.99238281 -3.85164063 14.81289062 -3.84765625 13.59765625 C-3.85152344 12.41816406 -3.85539062 11.23867187 -3.859375 10.0234375 C-3.85808594 8.90324219 -3.85679688 7.78304687 -3.85546875 6.62890625 C-3.85434082 5.59314453 -3.85321289 4.55738281 -3.85205078 3.49023438 C-3.66694341 0.06749434 -3.45626457 0.12396932 0 0 Z " fill="#DDDDDD" transform="translate(105.72265625,66.90234375)"/>
<path d="M0 0 C1.32 0.33 2.64 0.66 4 1 C4 1.66 4 2.32 4 3 C4.99 3.33 5.98 3.66 7 4 C7.75 6.1875 7.75 6.1875 8 9 C6.1875 11.5625 6.1875 11.5625 4 14 C3.30383353 15.31817088 2.63102562 16.64943386 2 18 C0.59545452 11.88019467 -0.23268915 6.28260706 0 0 Z " fill="#FABA1C" transform="translate(139,46)"/>
<path d="M0 0 C3.5875213 1.33250791 6.8364623 2.830717 10 5 C10 5.66 10 6.32 10 7 C10.66 7.12375 11.32 7.2475 12 7.375 C15 8 15 8 18.59375 9.03125 C23.26051936 10.20542114 27.71236217 10.22636692 32.5 10.125 C33.32242188 10.11597656 34.14484375 10.10695312 34.9921875 10.09765625 C36.99492083 10.07436865 38.99750154 10.03850959 41 10 C37.63189289 13.36810711 33.25739094 13.0676602 28.6875 13.1875 C18.26694553 12.99581756 9.37845059 9.56486202 1.875 2.125 C1.25625 1.42375 0.6375 0.7225 0 0 Z " fill="#F3C17F" transform="translate(74,140)"/>
<path d="M0 0 C0.97710937 -0.02578125 1.95421875 -0.0515625 2.9609375 -0.078125 C5.625 0.25 5.625 0.25 8.625 3.25 C1.695 2.755 1.695 2.755 -5.375 2.25 C-5.375 10.17 -5.375 18.09 -5.375 26.25 C-3.725 26.25 -2.075 26.25 -0.375 26.25 C-0.375 23.61 -0.375 20.97 -0.375 18.25 C1.605 18.25 3.585 18.25 5.625 18.25 C5.625 18.58 5.625 18.91 5.625 19.25 C3.975 19.25 2.325 19.25 0.625 19.25 C0.625 21.89 0.625 24.53 0.625 27.25 C-1.685 27.25 -3.995 27.25 -6.375 27.25 C-6.40386537 22.93751391 -6.42175255 18.62505238 -6.4375 14.3125 C-6.44587891 13.08080078 -6.45425781 11.84910156 -6.46289062 10.58007812 C-6.46611328 9.41025391 -6.46933594 8.24042969 -6.47265625 7.03515625 C-6.47789307 5.95113525 -6.48312988 4.86711426 -6.48852539 3.75024414 C-6.282921 -0.77791626 -4.01191771 0.06317981 0 0 Z " fill="#AEAEAE" transform="translate(91.375,66.75)"/>
<path d="M0 0 C1.21458058 3.56676128 0.80080853 6.26684137 0.125 9.9375 C-0.05804688 10.95714844 -0.24109375 11.97679688 -0.4296875 13.02734375 C-0.78140762 14.86062466 -1.15455354 16.6901245 -1.5625 18.51171875 C-3.29356793 28.35716763 -1.76813935 39.08277228 -1 49 C-7.70662427 36.67725947 -4.48795515 15.59091126 -0.875 2.6875 C-0.58625 1.800625 -0.2975 0.91375 0 0 Z " fill="#F7D486" transform="translate(57,55)"/>
<path d="M0 0 C0.66 0 1.32 0 2 0 C2.40992188 0.78246094 2.81984375 1.56492188 3.2421875 2.37109375 C3.78101563 3.38300781 4.31984375 4.39492188 4.875 5.4375 C5.40867188 6.44683594 5.94234375 7.45617188 6.4921875 8.49609375 C7.75654114 11.10140442 7.75654114 11.10140442 10 12 C9.67 9.69 9.34 7.38 9 5 C11.97246802 7.54782974 13.41535288 10.45340883 15 14 C15 14.66 15 15.32 15 16 C14.34 16 13.68 16 13 16 C12.67 15.34 12.34 14.68 12 14 C11.01 13.67 10.02 13.34 9 13 C8.67 14.32 8.34 15.64 8 17 C4.04 8.585 4.04 8.585 0 0 Z " fill="#F8D16A" transform="translate(130,33)"/>
<path d="M0 0 C0.25 2.25 0.25 2.25 0 5 C-1.28659163 6.37849103 -2.62913085 7.70529025 -4 9 C-5.45980815 11.27848435 -6.71545954 13.61442486 -8 16 C-8.99 16 -9.98 16 -11 16 C-9.36 11.33230769 -9.36 11.33230769 -7.375 9.5 C-5.7098842 8.03179264 -5.7098842 8.03179264 -6.0625 5.5 C-6 3 -6 3 -4.125 1.1875 C-2 0 -2 0 0 0 Z " fill="#FAB918" transform="translate(74,30)"/>
<path d="M0 0 C0.74572266 -0.01611328 1.49144531 -0.03222656 2.25976562 -0.04882812 C5.64002203 -0.05184352 7.90434125 0.06633914 10.83203125 1.83203125 C11.32058594 2.32058594 11.80914062 2.80914063 12.3125 3.3125 C10.641875 3.065 10.641875 3.065 8.9375 2.8125 C1.17660784 1.88174045 -5.36420754 1.71703726 -12.6796875 4.75390625 C-15.04966097 5.41325685 -16.38622576 5.09163096 -18.6875 4.3125 C-17.6975 4.3125 -16.7075 4.3125 -15.6875 4.3125 C-15.6875 3.6525 -15.6875 2.9925 -15.6875 2.3125 C-10.33428777 0.53752474 -5.62466147 -0.02469123 0 0 Z " fill="#F5BD35" transform="translate(102.6875,14.6875)"/>
<path d="M0 0 C0.33 0.66 0.66 1.32 1 2 C3.02463255 2.65213292 3.02463255 2.65213292 5 3 C3.54195831 3.81302325 2.08355685 4.62540131 0.625 5.4375 C-0.18710938 5.88996094 -0.99921875 6.34242187 -1.8359375 6.80859375 C-3.20996622 7.5650536 -4.59709261 8.29854631 -6 9 C-6 8.01 -6 7.02 -6 6 C-7.32 6.33 -8.64 6.66 -10 7 C-3.18421053 0 -3.18421053 0 0 0 Z " fill="#F8D372" transform="translate(87,17)"/>
<path d="M0 0 C0.33 0 0.66 0 1 0 C1 3.3 1 6.6 1 10 C2.32 10 3.64 10 5 10 C5 7.03 5 4.06 5 1 C5.99 1 6.98 1 8 1 C7.85957123 2.64630328 7.71250671 4.29204179 7.5625 5.9375 C7.48128906 6.85402344 7.40007812 7.77054687 7.31640625 8.71484375 C7 11 7 11 6 12 C4.02 12 2.04 12 0 12 C0 8.04 0 4.08 0 0 Z " fill="#A9A9A9" transform="translate(103,82)"/>
<path d="M0 0 C0 3 0 3 -1.875 5.1875 C-4 7 -4 7 -6 7 C-6.23460938 7.64453125 -6.46921875 8.2890625 -6.7109375 8.953125 C-8 11 -8 11 -10.1640625 11.609375 C-10.97617188 11.65578125 -11.78828125 11.7021875 -12.625 11.75 C-13.44226563 11.80671875 -14.25953125 11.8634375 -15.1015625 11.921875 C-15.72804688 11.94765625 -16.35453125 11.9734375 -17 12 C-13.57629654 9.71753103 -10.03708371 7.68652485 -6.47265625 5.6328125 C-3.97168836 3.98130448 -2.03943957 2.1861278 0 0 Z " fill="#F3BC74" transform="translate(127,120)"/>
<path d="M0 0 C1.0076835 2.65212405 1.06404749 3.80961224 0.14453125 6.54296875 C-0.29503906 7.41566406 -0.73460937 8.28835937 -1.1875 9.1875 C-1.61417969 10.06792969 -2.04085937 10.94835937 -2.48046875 11.85546875 C-4 14 -4 14 -6.17578125 14.80078125 C-7.07876953 14.89939453 -7.07876953 14.89939453 -8 15 C-6.38102741 11.69918209 -4.64075691 8.47442567 -2.875 5.25 C-2.33617187 4.26515625 -1.79734375 3.2803125 -1.2421875 2.265625 C-0.83226562 1.51796875 -0.42234375 0.7703125 0 0 Z " fill="#F3BB73" transform="translate(136,105)"/>
<path d="M0 0 C0.99 0.33 1.98 0.66 3 1 C3.33 1.99 3.66 2.98 4 4 C4.66 4.33 5.32 4.66 6 5 C6.40729228 7.32156597 6.74438677 9.6568787 7 12 C4 11 4 11 2.83203125 9.2578125 C2.49558594 8.55398437 2.15914062 7.85015625 1.8125 7.125 C1.46832031 6.42632812 1.12414062 5.72765625 0.76953125 5.0078125 C0 3 0 3 0 0 Z " fill="#FAB919" transform="translate(133,33)"/>
<path d="M0 0 C1.74325447 2.6148817 2.41587957 4.0053433 3.125 6.9375 C3.29257813 7.60652344 3.46015625 8.27554688 3.6328125 8.96484375 C4 11 4 11 4 15 C3.34 15 2.68 15 2 15 C1.67 13.35 1.34 11.7 1 10 C0.01 9.67 -0.98 9.34 -2 9 C-2 8.34 -2 7.68 -2 7 C-1.34 7 -0.68 7 0 7 C0 4.69 0 2.38 0 0 Z " fill="#F7BC4C" transform="translate(61,83)"/>
<path d="M0 0 C2 3 2 3 3 6 C3.66 5.67 4.32 5.34 5 5 C5.65555119 2.47266765 5.65555119 2.47266765 6 0 C6.66 0.99 7.32 1.98 8 3 C7.731875 3.515625 7.46375 4.03125 7.1875 4.5625 C5.67650593 7.66401415 4.34427274 10.82262806 3 14 C2.67 14 2.34 14 2 14 C1.66179834 12.4176994 1.32964061 10.83410625 1 9.25 C0.814375 8.36828125 0.62875 7.4865625 0.4375 6.578125 C0 4 0 4 0 0 Z " fill="#F8CE6B" transform="translate(139,50)"/>
<path d="M0 0 C7.80251346 4.12208259 7.80251346 4.12208259 10 8 C10 8.66 10 9.32 10 10 C9.01 9.67 8.02 9.34 7 9 C6.67 8.01 6.34 7.02 6 6 C5.34 5.67 4.68 5.34 4 5 C3.67 5.66 3.34 6.32 3 7 C3 6.34 3 5.68 3 5 C2.34 5 1.68 5 1 5 C0.67 3.35 0.34 1.7 0 0 Z " fill="#F9C341" transform="translate(129,28)"/>
<path d="M0 0 C1.77007714 -0.08114106 3.54122098 -0.13925505 5.3125 -0.1875 C6.29863281 -0.22230469 7.28476563 -0.25710937 8.30078125 -0.29296875 C11 0 11 0 14 3 C7.07 2.505 7.07 2.505 0 2 C0 1.34 0 0.68 0 0 Z " fill="#B6B6B6" transform="translate(86,67)"/>
<path d="M0 0 C1.98 1.65 3.96 3.3 6 5 C5.67 5.66 5.34 6.32 5 7 C3.68 6.34 2.36 5.68 1 5 C0.67 5.99 0.34 6.98 0 8 C-0.99 6.35 -1.98 4.7 -3 3 C-2.01 2.01 -1.02 1.02 0 0 Z " fill="#F8D169" transform="translate(129,25)"/>
<path d="M0 0 C3.92734211 3.77024843 7.44406161 7.88470051 11 12 C6.91958698 12 5.48873198 10.35977354 2.51953125 7.734375 C0.39499021 5.30944898 0.07547434 3.1699221 0 0 Z " fill="#F5C991" transform="translate(71,112)"/>
<path d="M0 0 C0.66 0 1.32 0 2 0 C2 3.27275026 1.70074844 5.846632 1 9 C0.67 7.68 0.34 6.36 0 5 C-1.32 5.99 -2.64 6.98 -4 8 C-4.66 7.67 -5.32 7.34 -6 7 C-5.04882866 5.8274869 -4.08882991 4.66212985 -3.125 3.5 C-2.59132813 2.8503125 -2.05765625 2.200625 -1.5078125 1.53125 C-0.76144531 0.77328125 -0.76144531 0.77328125 0 0 Z " fill="#F8D270" transform="translate(74,25)"/>
<path d="M0 0 C4.75 1.875 4.75 1.875 7 3 C6.67 3.66 6.34 4.32 6 5 C4.68 5 3.36 5 2 5 C1.34 3.35 0.68 1.7 0 0 Z " fill="#F7C13C" transform="translate(122,22)"/>
<path d="M0 0 C0 1.65 0 3.3 0 5 C-0.99 5.495 -0.99 5.495 -2 6 C-2 5.34 -2 4.68 -2 4 C-3.32 4.33 -4.64 4.66 -6 5 C-6 4.34 -6 3.68 -6 3 C-2.53846154 0 -2.53846154 0 0 0 Z " fill="#F9C035" transform="translate(74,30)"/>
</svg>
